<?xml version="1.0" encoding="UTF-8"?>
<svg version="1.1" viewBox="0 0 24 24" xmlns="http://www.w3.org/2000/svg" xmlns:xlink="http://www.w3.org/1999/xlink">
    <!--Generated by IJSVG (https://github.com/curthard89/IJSVG)-->
    <path d="M0,0h24v24h-24Z" fill="none"></path>
    <path fill="#000" d="M13,3h-2v10h2v-10Zm4.83,2.17l-1.42,1.42c1.58,1.27 2.59,3.22 2.59,5.41c0,3.87 -3.13,7 -7,7c-3.87,0 -7,-3.13 -7,-7c0,-2.19 1.01,-4.14 2.58,-5.42l-1.41,-1.41c-1.94,1.65 -3.17,4.09 -3.17,6.83c0,4.97 4.03,9 9,9c4.97,0 9,-4.03 9,-9c0,-2.74 -1.23,-5.18 -3.17,-6.83Z"></path>
</svg>