<?xml version="1.0" encoding="UTF-8"?>
<svg width="194px" height="32px" viewBox="0 0 194 32" version="1.1" xmlns="http://www.w3.org/2000/svg" xmlns:xlink="http://www.w3.org/1999/xlink">
    <!-- Generator: Sketch 49.3 (51167) - http://www.bohemiancoding.com/sketch -->
    <title>Group 6</title>
    <desc>Created with Sketch.</desc>
    <defs></defs>
    <g id="Page-1" stroke="none" stroke-width="1" fill="none" fill-rule="evenodd">
        <g id="Group-7" transform="translate(-10.000000, -12.000000)" fill="#E54B4B">
            <g id="Group-6">
                <path d="M54.201416,34.8745117 L57.9807129,34.8745117 C58.2046723,36.4982178 59.0200125,37.7754674 60.4267578,38.7062988 C61.8335031,39.6371303 63.6216526,40.1025391 65.7912598,40.1025391 C67.8488872,40.1025391 69.5460545,39.6161344 70.8828125,38.6433105 C72.2195705,37.6704867 72.8879395,36.4422275 72.8879395,34.9584961 C72.8879395,33.6847267 72.4330286,32.6244346 71.5231934,31.7775879 C70.6133581,30.9307412 69.1086531,30.2763695 67.0090332,29.8144531 L63.6496582,29.0795898 C60.6122081,28.421709 58.404141,27.3999093 57.0253906,26.0141602 C55.6466402,24.628411 54.9572754,22.8577582 54.9572754,20.7021484 C54.9572754,18.1966021 55.9545799,16.1530027 57.9492188,14.5712891 C59.9438576,12.9895754 62.5088548,12.1987305 65.6442871,12.1987305 C68.6677397,12.1987305 71.1662499,13.0140706 73.1398926,14.6447754 C75.1135353,16.2754802 76.1423336,18.3785679 76.2263184,20.9541016 L72.4470215,20.9541016 C72.2790519,19.2884031 71.5791891,17.9796597 70.3474121,17.027832 C69.1156351,16.0760044 67.5129493,15.6000977 65.5393066,15.6000977 C63.6496488,15.6000977 62.0609602,16.0375119 60.7731934,16.9123535 C59.4854265,17.7871951 58.8415527,18.9944584 58.8415527,20.5341797 C58.8415527,21.7239643 59.2824663,22.7317667 60.1643066,23.5576172 C61.046147,24.3834677 62.5228575,25.0203428 64.5944824,25.4682617 L67.9538574,26.203125 C71.1172847,26.8890008 73.3778415,27.8898046 74.7355957,29.2055664 C76.0933499,30.5213282 76.7722168,32.2499893 76.7722168,34.3916016 C76.7722168,37.1910947 75.7539164,39.4096598 73.7172852,41.0473633 C71.6806539,42.6850668 68.9686856,43.5039062 65.5812988,43.5039062 C62.2778969,43.5039062 59.6009217,42.7200599 57.550293,41.1523438 C55.4996642,39.5846276 54.3833831,37.4920378 54.201416,34.8745117 Z M82.189209,15.894043 L85.8425293,15.894043 L85.8425293,21.1640625 L90.0837402,21.1640625 L90.0837402,24.1665039 L85.8425293,24.1665039 L85.8425293,37.1420898 C85.8425293,38.1359099 86.0594868,38.8672665 86.4934082,39.3361816 C86.9273296,39.8050967 87.6131952,40.0395508 88.5510254,40.0395508 C88.7609874,40.0395508 89.0339339,40.0255535 89.369873,39.9975586 C89.7058122,39.9695637 89.9367669,39.9485678 90.0627441,39.9345703 L90.0627441,43 C89.8387847,43.0559899 89.5063499,43.0979816 89.0654297,43.1259766 C88.6245095,43.1539715 88.1870953,43.1679688 87.7531738,43.1679688 C85.7515362,43.1679688 84.3238161,42.7200566 83.4699707,41.8242188 C82.6161253,40.9283809 82.189209,39.4306746 82.189209,37.3310547 L82.189209,24.1665039 L78.9348145,24.1665039 L78.9348145,21.1640625 L82.189209,21.1640625 L82.189209,15.894043 Z M94.3249512,43 L94.3249512,21.1640625 L97.7683105,21.1640625 L97.7683105,24.7333984 L97.8522949,24.7333984 C98.636153,22.1018749 100.399807,20.7861328 103.143311,20.7861328 C103.465252,20.7861328 103.755695,20.8036294 104.014648,20.838623 C104.273602,20.8736167 104.473062,20.9051105 104.613037,20.9331055 L104.613037,24.4814453 C104.473062,24.4254554 104.224611,24.3764651 103.867676,24.3344727 C103.51074,24.2924803 103.108319,24.2714844 102.6604,24.2714844 C101.246656,24.2714844 100.112879,24.7403924 99.2590332,25.6782227 C98.4051878,26.6160529 97.9782715,27.85481 97.9782715,29.3945312 L97.9782715,43 L94.3249512,43 Z M116.706787,23.956543 C114.999096,23.956543 113.592372,24.5444277 112.486572,25.7202148 C111.380772,26.896002 110.771892,28.3937083 110.659912,30.2133789 L122.522705,30.2133789 C122.480713,28.3797109 121.93132,26.8785052 120.874512,25.7097168 C119.817703,24.5409284 118.428475,23.956543 116.706787,23.956543 Z M122.438721,36.7431641 L126.029053,36.7431641 C125.721108,38.6468194 124.723804,40.2285093 123.037109,41.4882812 C121.350415,42.7480532 119.317313,43.3779297 116.937744,43.3779297 C113.816309,43.3779297 111.359791,42.366628 109.568115,40.3439941 C107.77644,38.3213603 106.880615,35.5953948 106.880615,32.1660156 C106.880615,28.7786289 107.77644,26.0351667 109.568115,23.9355469 C111.359791,21.835927 113.76032,20.7861328 116.769775,20.7861328 C119.723241,20.7861328 122.050284,21.7764387 123.750977,23.7570801 C125.451669,25.7377215 126.302002,28.3797035 126.302002,31.6831055 L126.302002,33.0688477 L110.638916,33.0688477 L110.638916,33.2788086 C110.638916,35.364431 111.212804,37.0406024 112.360596,38.307373 C113.508388,39.5741437 115.062083,40.2075195 117.021729,40.2075195 C118.407478,40.2075195 119.579748,39.8855826 120.538574,39.2416992 C121.497401,38.5978158 122.130776,37.7649791 122.438721,36.7431641 Z M137.555908,40.2705078 C139.277596,40.2705078 140.722813,39.7351128 141.891602,38.6643066 C143.06039,37.5935005 143.644775,36.2742591 143.644775,34.706543 L143.644775,32.921875 L137.807861,33.2788086 C134.728419,33.4747731 133.188721,34.6575412 133.188721,36.8271484 C133.188721,37.8629609 133.587642,38.6957976 134.385498,39.3256836 C135.183354,39.9555696 136.240146,40.2705078 137.555908,40.2705078 Z M136.737061,43.3779297 C134.567453,43.3779297 132.814297,42.7760477 131.477539,41.5722656 C130.140781,40.3684836 129.472412,38.7867937 129.472412,36.8271484 C129.472412,34.951488 130.161777,33.4537816 131.540527,32.3339844 C132.919278,31.2141871 134.868396,30.5843106 137.387939,30.4443359 L143.644775,30.0874023 L143.644775,28.2607422 C143.644775,26.9309829 143.224858,25.8881874 142.38501,25.1323242 C141.545162,24.3764611 140.369392,23.9985352 138.857666,23.9985352 C137.457919,23.9985352 136.327641,24.3064748 135.466797,24.9223633 C134.605953,25.5382518 134.05656,26.3850858 133.818604,27.4628906 L130.29126,27.4628906 C130.417237,25.5732327 131.246574,23.9880435 132.779297,22.7072754 C134.312019,21.4265073 136.366117,20.7861328 138.94165,20.7861328 C141.503187,20.7861328 143.536288,21.4300066 145.041016,22.7177734 C146.545743,24.0055403 147.298096,25.7342014 147.298096,27.9038086 L147.298096,43 L143.83374,43 L143.83374,39.2416992 L143.749756,39.2416992 C143.105872,40.4874737 142.143561,41.4882775 140.862793,42.2441406 C139.582025,43.0000038 138.206794,43.3779297 136.737061,43.3779297 Z M152.316162,43 L152.316162,21.1640625 L155.759521,21.1640625 L155.759521,24.6494141 L155.843506,24.6494141 C156.361412,23.4876244 157.155756,22.5533076 158.226562,21.8464355 C159.297369,21.1395635 160.56762,20.7861328 162.037354,20.7861328 C163.535082,20.7861328 164.812332,21.1465622 165.869141,21.8674316 C166.925949,22.5883011 167.692299,23.6136001 168.168213,24.9433594 L168.252197,24.9433594 C168.868086,23.6415951 169.781407,22.6232947 170.992188,21.8884277 C172.202968,21.1535608 173.5712,20.7861328 175.096924,20.7861328 C177.266531,20.7861328 178.995192,21.4335059 180.282959,22.7282715 C181.570726,24.0230371 182.2146,25.7551975 182.2146,27.9248047 L182.2146,43 L178.561279,43 L178.561279,28.7646484 C178.561279,27.2669196 178.165857,26.101648 177.375,25.2687988 C176.584143,24.4359496 175.467862,24.0195312 174.026123,24.0195312 C172.584384,24.0195312 171.401616,24.4989373 170.477783,25.4577637 C169.55395,26.4165901 169.092041,27.6378507 169.092041,29.121582 L169.092041,43 L165.438721,43 L165.438721,28.3657227 C165.438721,27.0499609 165.0328,25.9966674 164.220947,25.2058105 C163.409094,24.4149537 162.324307,24.0195312 160.966553,24.0195312 C159.524814,24.0195312 158.331548,24.5234325 157.386719,25.53125 C156.44189,26.5390675 155.969482,27.7988206 155.969482,29.3105469 L155.969482,43 L152.316162,43 Z M186.854736,27.1899414 C186.854736,25.314281 187.60009,23.7780822 189.09082,22.5812988 C190.58155,21.3845155 192.509672,20.7861328 194.875244,20.7861328 C197.268811,20.7861328 199.203931,21.4160093 200.680664,22.6757812 C202.157397,23.9355532 202.930745,25.5312403 203.000732,27.4628906 L199.515381,27.4628906 C199.375406,26.3150984 198.902999,25.4122754 198.098145,24.7543945 C197.29329,24.0965136 196.219001,23.7675781 194.875244,23.7675781 C193.545485,23.7675781 192.474695,24.0685191 191.662842,24.6704102 C190.850989,25.2723012 190.445068,26.0491489 190.445068,27.0009766 C190.445068,27.7568397 190.732012,28.3937149 191.305908,28.9116211 C191.879804,29.4295273 192.775629,29.8354477 193.993408,30.1293945 L197.457764,30.9692383 C199.669363,31.501142 201.223059,32.2289993 202.118896,33.152832 C203.014734,34.0766648 203.462646,35.3224205 203.462646,36.8901367 C203.462646,38.7937921 202.661304,40.3509868 201.058594,41.5617676 C199.455884,42.7725484 197.43678,43.3779297 195.001221,43.3779297 C192.439684,43.3779297 190.396085,42.7760477 188.870361,41.5722656 C187.344638,40.3684836 186.476808,38.7448019 186.266846,36.7011719 L189.920166,36.7011719 C190.144125,37.9469463 190.676021,38.8742645 191.515869,39.4831543 C192.355717,40.0920441 193.517489,40.3964844 195.001221,40.3964844 C196.484952,40.3964844 197.653723,40.102542 198.507568,39.5146484 C199.361414,38.9267549 199.78833,38.1429085 199.78833,37.1630859 C199.78833,36.3792279 199.539879,35.745852 199.042969,35.2629395 C198.546059,34.7800269 197.67473,34.3846044 196.428955,34.0766602 L192.9646,33.2368164 C188.891337,32.2569938 186.854736,30.241389 186.854736,27.1899414 Z" id="Streams"></path>
                <g id="Group-4" transform="translate(26.000000, 26.500000) rotate(-315.000000) translate(-26.000000, -26.500000) translate(10.000000, 6.000000)" fill-rule="nonzero">
                    <path d="M22.6642386,16.6143975 C23.445055,16.6143975 24.0780317,17.2473742 24.0780317,18.0281906 C24.0780317,18.8090069 23.445055,19.4419837 22.6642386,19.4419837 C20.8423338,19.4419837 19.3653881,20.9189294 19.3653881,22.7408342 C19.3653881,24.5627391 20.8423338,26.0396848 22.6642386,26.0396848 C24.4861435,26.0396848 25.9630892,24.5627391 25.9630892,22.7408342 C25.9630892,21.9600179 26.5960659,21.3270411 27.3768823,21.3270411 C28.1576987,21.3270411 28.7906754,21.9600179 28.7906754,22.7408342 C28.7906754,26.1243718 26.0477762,28.867271 22.6642386,28.867271 C19.280701,28.867271 16.5378019,26.1243718 16.5378019,22.7408342 C16.5378019,19.3572966 19.280701,16.6143975 22.6642386,16.6143975 Z" id="Oval-3" transform="translate(22.664239, 22.740834) rotate(-315.000000) translate(-22.664239, -22.740834) "></path>
                    <path d="M22.2748011,12.3009192 C23.0556175,12.3009192 23.6885942,12.9338959 23.6885942,13.7147123 C23.6885942,14.4955287 23.0556175,15.1285054 22.2748011,15.1285054 C17.3296308,15.1285054 13.3207781,19.137358 13.3207781,24.0825284 C13.3207781,29.0276987 17.3296308,33.0365514 22.2748011,33.0365514 C23.0556175,33.0365514 23.6885942,33.6695281 23.6885942,34.4503445 C23.6885942,35.2311608 23.0556175,35.8641376 22.2748011,35.8641376 C15.767998,35.8641376 10.4931919,30.5893315 10.4931919,24.0825284 C10.4931919,17.5757253 15.767998,12.3009192 22.2748011,12.3009192 Z" id="Oval-3" transform="translate(17.090893, 24.082528) rotate(-375.000000) translate(-17.090893, -24.082528) "></path>
                    <path d="M22.2181125,2.69827488 C22.9989288,2.69827488 23.6319056,3.33125161 23.6319056,4.11206798 C23.6319056,4.89288435 22.9989288,5.52586108 22.2181125,5.52586108 C13.8894045,5.52586108 7.1376527,12.2776129 7.1376527,20.6063209 C7.1376527,28.9350288 13.8894045,35.6867806 22.2181125,35.6867806 C22.9989288,35.6867806 23.6319056,36.3197574 23.6319056,37.1005737 C23.6319056,37.8813901 22.9989288,38.5143668 22.2181125,38.5143668 C12.3277718,38.5143668 4.31006649,30.4966615 4.31006649,20.6063209 C4.31006649,10.7159802 12.3277718,2.69827488 22.2181125,2.69827488 Z" id="Oval-3" transform="translate(13.970986, 20.606321) rotate(-345.000000) translate(-13.970986, -20.606321) "></path>
                </g>
            </g>
        </g>
    </g>
</svg>